<svg id="visual" viewBox="0 0 30 900" width="30" height="900" xmlns="http://www.w3.org/2000/svg" xmlns:xlink="http://www.w3.org/1999/xlink" version="1.1"><rect x="0" y="0" width="30" height="900" fill="#f3f4f6"></rect><path d="M16 0L14.8 6.8C13.7 13.7 11.3 27.3 11 41C10.7 54.7 12.3 68.3 13 82C13.7 95.7 13.3 109.3 12.8 123C12.3 136.7 11.7 150.3 11.3 164C11 177.7 11 191.3 10.7 204.8C10.3 218.3 9.7 231.7 9.3 245.2C9 258.7 9 272.3 11.7 286C14.3 299.7 19.7 313.3 20.8 327C22 340.7 19 354.3 18.2 368C17.3 381.7 18.7 395.3 19.3 409C20 422.7 20 436.3 18.2 450C16.3 463.7 12.7 477.3 11.5 491C10.3 504.7 11.7 518.3 14.3 532C17 545.7 21 559.3 20.3 573C19.7 586.7 14.3 600.3 12.8 614C11.3 627.7 13.7 641.3 13.7 654.8C13.7 668.3 11.3 681.7 12 695.2C12.7 708.7 16.3 722.3 17.2 736C18 749.7 16 763.3 15 777C14 790.7 14 804.3 15.2 818C16.3 831.7 18.7 845.3 17.8 859C17 872.7 13 886.3 11 893.2L9 900L0 900L0 893.2C0 886.3 0 872.7 0 859C0 845.3 0 831.7 0 818C0 804.3 0 790.7 0 777C0 763.3 0 749.7 0 736C0 722.3 0 708.7 0 695.2C0 681.7 0 668.3 0 654.8C0 641.3 0 627.7 0 614C0 600.3 0 586.7 0 573C0 559.3 0 545.7 0 532C0 518.3 0 504.7 0 491C0 477.3 0 463.7 0 450C0 436.3 0 422.7 0 409C0 395.3 0 381.7 0 368C0 354.3 0 340.7 0 327C0 313.3 0 299.7 0 286C0 272.3 0 258.7 0 245.2C0 231.7 0 218.3 0 204.8C0 191.3 0 177.7 0 164C0 150.3 0 136.7 0 123C0 109.3 0 95.7 0 82C0 68.3 0 54.7 0 41C0 27.3 0 13.7 0 6.8L0 0Z" fill="#fa7268"></path><path d="M24 0L23 6.8C22 13.7 20 27.3 19.8 41C19.7 54.7 21.3 68.3 21.2 82C21 95.7 19 109.3 16.5 123C14 136.7 11 150.3 11.7 164C12.3 177.7 16.7 191.3 19.5 204.8C22.3 218.3 23.7 231.7 22 245.2C20.3 258.7 15.7 272.3 14.2 286C12.7 299.7 14.3 313.3 14.7 327C15 340.7 14 354.3 13.8 368C13.7 381.7 14.3 395.3 15 409C15.7 422.7 16.3 436.3 17 450C17.7 463.7 18.3 477.3 18.2 491C18 504.7 17 518.3 17.7 532C18.3 545.7 20.7 559.3 20 573C19.3 586.7 15.7 600.3 15.2 614C14.7 627.7 17.3 641.3 19 654.8C20.7 668.3 21.3 681.7 20.7 695.2C20 708.7 18 722.3 15.8 736C13.7 749.7 11.3 763.3 11 777C10.7 790.7 12.3 804.3 14.7 818C17 831.7 20 845.3 19.3 859C18.7 872.7 14.3 886.3 12.2 893.2L10 900L0 900L0 893.2C0 886.3 0 872.7 0 859C0 845.3 0 831.7 0 818C0 804.3 0 790.7 0 777C0 763.3 0 749.7 0 736C0 722.3 0 708.7 0 695.2C0 681.7 0 668.3 0 654.8C0 641.3 0 627.7 0 614C0 600.3 0 586.7 0 573C0 559.3 0 545.7 0 532C0 518.3 0 504.7 0 491C0 477.3 0 463.7 0 450C0 436.3 0 422.7 0 409C0 395.3 0 381.7 0 368C0 354.3 0 340.7 0 327C0 313.3 0 299.7 0 286C0 272.3 0 258.7 0 245.2C0 231.7 0 218.3 0 204.8C0 191.3 0 177.7 0 164C0 150.3 0 136.7 0 123C0 109.3 0 95.7 0 82C0 68.3 0 54.7 0 41C0 27.3 0 13.7 0 6.8L0 0Z" fill="#f66b68"></path><path d="M19 0L18 6.8C17 13.7 15 27.3 13.8 41C12.7 54.7 12.3 68.3 11.8 82C11.3 95.7 10.7 109.3 11.3 123C12 136.7 14 150.3 13.7 164C13.3 177.7 10.7 191.3 11.8 204.8C13 218.3 18 231.7 19.5 245.2C21 258.7 19 272.3 18.3 286C17.7 299.7 18.3 313.3 18.7 327C19 340.7 19 354.3 19.8 368C20.7 381.7 22.3 395.3 22.3 409C22.3 422.7 20.7 436.3 18.3 450C16 463.7 13 477.3 12.7 491C12.3 504.7 14.7 518.3 15.2 532C15.7 545.7 14.3 559.3 13 573C11.7 586.7 10.3 600.3 11.5 614C12.7 627.7 16.3 641.3 16.7 654.8C17 668.3 14 681.7 12.5 695.2C11 708.7 11 722.3 10.8 736C10.7 749.7 10.3 763.3 10.7 777C11 790.7 12 804.3 12.3 818C12.7 831.7 12.3 845.3 12.5 859C12.7 872.7 13.3 886.3 13.7 893.2L14 900L0 900L0 893.2C0 886.3 0 872.7 0 859C0 845.3 0 831.7 0 818C0 804.3 0 790.7 0 777C0 763.3 0 749.7 0 736C0 722.3 0 708.7 0 695.2C0 681.7 0 668.3 0 654.8C0 641.3 0 627.7 0 614C0 600.3 0 586.7 0 573C0 559.3 0 545.7 0 532C0 518.3 0 504.7 0 491C0 477.3 0 463.7 0 450C0 436.3 0 422.7 0 409C0 395.3 0 381.7 0 368C0 354.3 0 340.7 0 327C0 313.3 0 299.7 0 286C0 272.3 0 258.7 0 245.2C0 231.7 0 218.3 0 204.8C0 191.3 0 177.7 0 164C0 150.3 0 136.7 0 123C0 109.3 0 95.7 0 82C0 68.3 0 54.7 0 41C0 27.3 0 13.7 0 6.8L0 0Z" fill="#f26467"></path><path d="M16 0L14.7 6.8C13.3 13.7 10.7 27.3 11.3 41C12 54.7 16 68.3 17.2 82C18.3 95.7 16.7 109.3 14.5 123C12.3 136.7 9.7 150.3 10.7 164C11.7 177.7 16.3 191.3 16.8 204.8C17.3 218.3 13.7 231.7 11.2 245.2C8.7 258.7 7.3 272.3 7.3 286C7.3 299.7 8.7 313.3 11 327C13.3 340.7 16.7 354.3 18.5 368C20.3 381.7 20.7 395.3 18.3 409C16 422.7 11 436.3 11 450C11 463.7 16 477.3 16.3 491C16.7 504.7 12.3 518.3 11.8 532C11.3 545.7 14.7 559.3 16.8 573C19 586.7 20 600.3 18.2 614C16.3 627.7 11.7 641.3 11 654.8C10.3 668.3 13.7 681.7 13.7 695.2C13.7 708.7 10.3 722.3 8.8 736C7.3 749.7 7.7 763.3 10 777C12.3 790.7 16.7 804.3 17.7 818C18.7 831.7 16.3 845.3 14.2 859C12 872.7 10 886.3 9 893.2L8 900L0 900L0 893.2C0 886.3 0 872.7 0 859C0 845.3 0 831.7 0 818C0 804.3 0 790.7 0 777C0 763.3 0 749.7 0 736C0 722.3 0 708.7 0 695.2C0 681.7 0 668.3 0 654.8C0 641.3 0 627.7 0 614C0 600.3 0 586.7 0 573C0 559.3 0 545.7 0 532C0 518.3 0 504.7 0 491C0 477.3 0 463.7 0 450C0 436.3 0 422.7 0 409C0 395.3 0 381.7 0 368C0 354.3 0 340.7 0 327C0 313.3 0 299.7 0 286C0 272.3 0 258.7 0 245.2C0 231.7 0 218.3 0 204.8C0 191.3 0 177.7 0 164C0 150.3 0 136.7 0 123C0 109.3 0 95.7 0 82C0 68.3 0 54.7 0 41C0 27.3 0 13.7 0 6.8L0 0Z" fill="#ee5d67"></path><path d="M14 0L12.7 6.8C11.3 13.7 8.7 27.3 8.7 41C8.7 54.7 11.3 68.3 13.2 82C15 95.7 16 109.3 16.5 123C17 136.7 17 150.3 15.8 164C14.7 177.7 12.3 191.3 11.3 204.8C10.3 218.3 10.7 231.7 11.8 245.2C13 258.7 15 272.3 14.2 286C13.3 299.7 9.7 313.3 9.2 327C8.7 340.7 11.3 354.3 13.5 368C15.7 381.7 17.3 395.3 16.3 409C15.3 422.7 11.7 436.3 11.7 450C11.7 463.7 15.3 477.3 15.2 491C15 504.7 11 518.3 10.2 532C9.3 545.7 11.7 559.3 13 573C14.3 586.7 14.7 600.3 13.3 614C12 627.7 9 641.3 9 654.8C9 668.3 12 681.7 12.2 695.2C12.3 708.7 9.7 722.3 9.3 736C9 749.7 11 763.3 11.3 777C11.7 790.7 10.3 804.3 10.7 818C11 831.7 13 845.3 13.5 859C14 872.7 13 886.3 12.5 893.2L12 900L0 900L0 893.2C0 886.3 0 872.7 0 859C0 845.3 0 831.7 0 818C0 804.3 0 790.7 0 777C0 763.3 0 749.7 0 736C0 722.3 0 708.7 0 695.2C0 681.7 0 668.3 0 654.8C0 641.3 0 627.7 0 614C0 600.3 0 586.7 0 573C0 559.3 0 545.7 0 532C0 518.3 0 504.7 0 491C0 477.3 0 463.7 0 450C0 436.3 0 422.7 0 409C0 395.3 0 381.7 0 368C0 354.3 0 340.7 0 327C0 313.3 0 299.7 0 286C0 272.3 0 258.7 0 245.2C0 231.7 0 218.3 0 204.8C0 191.3 0 177.7 0 164C0 150.3 0 136.7 0 123C0 109.3 0 95.7 0 82C0 68.3 0 54.7 0 41C0 27.3 0 13.7 0 6.8L0 0Z" fill="#ea5667"></path><path d="M10 0L11 6.8C12 13.7 14 27.3 14.8 41C15.7 54.7 15.3 68.3 14.5 82C13.7 95.7 12.3 109.3 11.8 123C11.3 136.7 11.7 150.3 12 164C12.3 177.7 12.7 191.3 12.5 204.8C12.3 218.3 11.7 231.7 11.2 245.2C10.7 258.7 10.3 272.3 9.8 286C9.3 299.7 8.7 313.3 9.5 327C10.3 340.7 12.7 354.3 14.2 368C15.7 381.7 16.3 395.3 15.8 409C15.3 422.7 13.7 436.3 13.3 450C13 463.7 14 477.3 12.8 491C11.7 504.7 8.3 518.3 7 532C5.7 545.7 6.3 559.3 7.3 573C8.3 586.7 9.7 600.3 10.2 614C10.7 627.7 10.3 641.3 11.2 654.8C12 668.3 14 681.7 13.5 695.2C13 708.7 10 722.3 9.5 736C9 749.7 11 763.3 11.8 777C12.7 790.7 12.3 804.3 11.7 818C11 831.7 10 845.3 10.5 859C11 872.7 13 886.3 14 893.2L15 900L0 900L0 893.2C0 886.3 0 872.7 0 859C0 845.3 0 831.7 0 818C0 804.3 0 790.7 0 777C0 763.3 0 749.7 0 736C0 722.3 0 708.7 0 695.2C0 681.7 0 668.3 0 654.8C0 641.3 0 627.7 0 614C0 600.3 0 586.7 0 573C0 559.3 0 545.7 0 532C0 518.3 0 504.7 0 491C0 477.3 0 463.7 0 450C0 436.3 0 422.7 0 409C0 395.3 0 381.7 0 368C0 354.3 0 340.7 0 327C0 313.3 0 299.7 0 286C0 272.3 0 258.7 0 245.2C0 231.7 0 218.3 0 204.8C0 191.3 0 177.7 0 164C0 150.3 0 136.7 0 123C0 109.3 0 95.7 0 82C0 68.3 0 54.7 0 41C0 27.3 0 13.7 0 6.8L0 0Z" fill="#e54f67"></path><path d="M13 0L13.3 6.8C13.7 13.7 14.3 27.3 13.2 41C12 54.7 9 68.3 9 82C9 95.7 12 109.3 13.3 123C14.7 136.7 14.3 150.3 13.2 164C12 177.7 10 191.3 9.5 204.8C9 218.3 10 231.7 10.2 245.2C10.3 258.7 9.7 272.3 9.5 286C9.3 299.7 9.7 313.3 10.5 327C11.3 340.7 12.7 354.3 11.7 368C10.7 381.7 7.3 395.3 7.3 409C7.3 422.7 10.7 436.3 11 450C11.3 463.7 8.7 477.3 8.5 491C8.3 504.7 10.7 518.3 12 532C13.3 545.7 13.7 559.3 13 573C12.3 586.7 10.7 600.3 10.3 614C10 627.7 11 641.3 10.7 654.8C10.3 668.3 8.7 681.7 9 695.2C9.3 708.7 11.7 722.3 12.2 736C12.7 749.7 11.3 763.3 11.5 777C11.7 790.7 13.3 804.3 14.2 818C15 831.7 15 845.3 13.3 859C11.7 872.7 8.3 886.3 6.7 893.2L5 900L0 900L0 893.2C0 886.3 0 872.7 0 859C0 845.3 0 831.7 0 818C0 804.3 0 790.7 0 777C0 763.3 0 749.7 0 736C0 722.3 0 708.7 0 695.2C0 681.7 0 668.3 0 654.8C0 641.3 0 627.7 0 614C0 600.3 0 586.7 0 573C0 559.3 0 545.7 0 532C0 518.3 0 504.7 0 491C0 477.3 0 463.7 0 450C0 436.3 0 422.7 0 409C0 395.3 0 381.7 0 368C0 354.3 0 340.7 0 327C0 313.3 0 299.7 0 286C0 272.3 0 258.7 0 245.2C0 231.7 0 218.3 0 204.8C0 191.3 0 177.7 0 164C0 150.3 0 136.7 0 123C0 109.3 0 95.7 0 82C0 68.3 0 54.7 0 41C0 27.3 0 13.7 0 6.8L0 0Z" fill="#e14867"></path><path d="M6 0L7.2 6.8C8.3 13.7 10.7 27.3 11 41C11.3 54.7 9.7 68.3 8.7 82C7.7 95.7 7.3 109.3 6.7 123C6 136.7 5 150.3 5.2 164C5.3 177.7 6.7 191.3 7.3 204.8C8 218.3 8 231.7 8.3 245.2C8.7 258.7 9.3 272.3 10 286C10.7 299.7 11.3 313.3 11.5 327C11.7 340.7 11.3 354.3 10.5 368C9.7 381.7 8.3 395.3 7.8 409C7.3 422.7 7.7 436.3 7.3 450C7 463.7 6 477.3 6.2 491C6.3 504.7 7.7 518.3 8.5 532C9.3 545.7 9.7 559.3 10 573C10.3 586.7 10.7 600.3 11 614C11.3 627.7 11.7 641.3 12 654.8C12.3 668.3 12.7 681.7 11.5 695.2C10.3 708.7 7.7 722.3 6.5 736C5.3 749.7 5.7 763.3 5.7 777C5.7 790.7 5.3 804.3 6.2 818C7 831.7 9 845.3 10 859C11 872.7 11 886.3 11 893.2L11 900L0 900L0 893.2C0 886.3 0 872.7 0 859C0 845.3 0 831.7 0 818C0 804.3 0 790.7 0 777C0 763.3 0 749.7 0 736C0 722.3 0 708.7 0 695.2C0 681.7 0 668.3 0 654.8C0 641.3 0 627.7 0 614C0 600.3 0 586.7 0 573C0 559.3 0 545.7 0 532C0 518.3 0 504.7 0 491C0 477.3 0 463.7 0 450C0 436.3 0 422.7 0 409C0 395.3 0 381.7 0 368C0 354.3 0 340.7 0 327C0 313.3 0 299.7 0 286C0 272.3 0 258.7 0 245.2C0 231.7 0 218.3 0 204.8C0 191.3 0 177.7 0 164C0 150.3 0 136.7 0 123C0 109.3 0 95.7 0 82C0 68.3 0 54.7 0 41C0 27.3 0 13.7 0 6.8L0 0Z" fill="#dc4167"></path><path d="M11 0L10.3 6.8C9.7 13.7 8.3 27.3 7.2 41C6 54.7 5 68.3 5.2 82C5.3 95.7 6.7 109.3 7.8 123C9 136.7 10 150.3 9.8 164C9.7 177.7 8.3 191.3 7.8 204.8C7.3 218.3 7.7 231.7 8.2 245.2C8.7 258.7 9.3 272.3 9 286C8.7 299.7 7.3 313.3 6.5 327C5.7 340.7 5.3 354.3 5.3 368C5.3 381.7 5.7 395.3 5.3 409C5 422.7 4 436.3 4.7 450C5.3 463.7 7.7 477.3 8.3 491C9 504.7 8 518.3 7.7 532C7.3 545.7 7.7 559.3 8 573C8.3 586.7 8.7 600.3 8.8 614C9 627.7 9 641.3 9.2 654.8C9.3 668.3 9.7 681.7 9.2 695.2C8.7 708.7 7.3 722.3 6.2 736C5 749.7 4 763.3 4.3 777C4.7 790.7 6.3 804.3 7 818C7.7 831.7 7.3 845.3 7.2 859C7 872.7 7 886.3 7 893.2L7 900L0 900L0 893.2C0 886.3 0 872.7 0 859C0 845.3 0 831.7 0 818C0 804.3 0 790.7 0 777C0 763.3 0 749.7 0 736C0 722.3 0 708.7 0 695.2C0 681.7 0 668.3 0 654.8C0 641.3 0 627.7 0 614C0 600.3 0 586.7 0 573C0 559.3 0 545.7 0 532C0 518.3 0 504.7 0 491C0 477.3 0 463.7 0 450C0 436.3 0 422.7 0 409C0 395.3 0 381.7 0 368C0 354.3 0 340.7 0 327C0 313.3 0 299.7 0 286C0 272.3 0 258.7 0 245.2C0 231.7 0 218.3 0 204.8C0 191.3 0 177.7 0 164C0 150.3 0 136.7 0 123C0 109.3 0 95.7 0 82C0 68.3 0 54.7 0 41C0 27.3 0 13.7 0 6.8L0 0Z" fill="#d73a67"></path><path d="M8 0L8 6.8C8 13.7 8 27.3 8.2 41C8.3 54.7 8.7 68.3 8.7 82C8.7 95.7 8.3 109.3 7.8 123C7.3 136.7 6.7 150.3 5.8 164C5 177.7 4 191.3 3.8 204.8C3.7 218.3 4.3 231.7 4.5 245.2C4.7 258.7 4.3 272.3 4.8 286C5.3 299.7 6.7 313.3 6.7 327C6.7 340.7 5.3 354.3 4.8 368C4.3 381.7 4.7 395.3 4.8 409C5 422.7 5 436.3 5.7 450C6.3 463.7 7.7 477.3 7.3 491C7 504.7 5 518.3 4.8 532C4.7 545.7 6.3 559.3 7 573C7.7 586.7 7.3 600.3 6.7 614C6 627.7 5 641.3 4.8 654.8C4.7 668.3 5.3 681.7 6.2 695.2C7 708.7 8 722.3 8.5 736C9 749.7 9 763.3 8.3 777C7.7 790.7 6.3 804.3 6.3 818C6.3 831.7 7.7 845.3 7.7 859C7.7 872.7 6.3 886.3 5.7 893.2L5 900L0 900L0 893.2C0 886.3 0 872.7 0 859C0 845.3 0 831.7 0 818C0 804.3 0 790.7 0 777C0 763.3 0 749.7 0 736C0 722.3 0 708.7 0 695.2C0 681.7 0 668.3 0 654.8C0 641.3 0 627.7 0 614C0 600.3 0 586.7 0 573C0 559.3 0 545.7 0 532C0 518.3 0 504.7 0 491C0 477.3 0 463.7 0 450C0 436.3 0 422.7 0 409C0 395.3 0 381.7 0 368C0 354.3 0 340.7 0 327C0 313.3 0 299.7 0 286C0 272.3 0 258.7 0 245.2C0 231.7 0 218.3 0 204.8C0 191.3 0 177.7 0 164C0 150.3 0 136.7 0 123C0 109.3 0 95.7 0 82C0 68.3 0 54.7 0 41C0 27.3 0 13.7 0 6.8L0 0Z" fill="#d13367"></path><path d="M2 0L2.3 6.8C2.7 13.7 3.3 27.3 4 41C4.7 54.7 5.3 68.3 5.2 82C5 95.7 4 109.3 3.3 123C2.7 136.7 2.3 150.3 2.5 164C2.7 177.7 3.3 191.3 4 204.8C4.7 218.3 5.3 231.7 5.3 245.2C5.3 258.7 4.7 272.3 4.8 286C5 299.7 6 313.3 6 327C6 340.7 5 354.3 4.7 368C4.3 381.7 4.7 395.3 4.8 409C5 422.7 5 436.3 5 450C5 463.7 5 477.3 5.2 491C5.3 504.7 5.7 518.3 5.5 532C5.3 545.7 4.7 559.3 4.2 573C3.7 586.7 3.3 600.3 3.2 614C3 627.7 3 641.3 3.7 654.8C4.3 668.3 5.7 681.7 5.8 695.2C6 708.7 5 722.3 4.2 736C3.3 749.7 2.7 763.3 3 777C3.3 790.7 4.7 804.3 5.2 818C5.7 831.7 5.3 845.3 5.2 859C5 872.7 5 886.3 5 893.2L5 900L0 900L0 893.2C0 886.3 0 872.7 0 859C0 845.3 0 831.7 0 818C0 804.3 0 790.7 0 777C0 763.3 0 749.7 0 736C0 722.3 0 708.7 0 695.2C0 681.7 0 668.3 0 654.8C0 641.3 0 627.7 0 614C0 600.3 0 586.7 0 573C0 559.3 0 545.7 0 532C0 518.3 0 504.7 0 491C0 477.3 0 463.7 0 450C0 436.3 0 422.7 0 409C0 395.3 0 381.7 0 368C0 354.3 0 340.7 0 327C0 313.3 0 299.7 0 286C0 272.3 0 258.7 0 245.2C0 231.7 0 218.3 0 204.8C0 191.3 0 177.7 0 164C0 150.3 0 136.7 0 123C0 109.3 0 95.7 0 82C0 68.3 0 54.7 0 41C0 27.3 0 13.7 0 6.8L0 0Z" fill="#cc2b68"></path><path d="M3 0L3.2 6.8C3.3 13.7 3.7 27.3 3.8 41C4 54.7 4 68.3 3.8 82C3.7 95.7 3.3 109.3 3 123C2.7 136.7 2.3 150.3 1.8 164C1.3 177.7 0.7 191.3 1 204.8C1.3 218.3 2.7 231.7 3.3 245.2C4 258.7 4 272.3 3.3 286C2.7 299.7 1.3 313.3 1.5 327C1.7 340.7 3.3 354.3 3.7 368C4 381.7 3 395.3 2.7 409C2.3 422.7 2.7 436.3 2.7 450C2.7 463.7 2.3 477.3 2.5 491C2.7 504.7 3.3 518.3 3 532C2.7 545.7 1.3 559.3 1.2 573C1 586.7 2 600.3 2.5 614C3 627.7 3 641.3 3.2 654.8C3.3 668.3 3.7 681.7 3.7 695.2C3.7 708.7 3.3 722.3 3.2 736C3 749.7 3 763.3 3.3 777C3.7 790.7 4.3 804.3 4.5 818C4.7 831.7 4.3 845.3 4.3 859C4.3 872.7 4.7 886.3 4.8 893.2L5 900L0 900L0 893.2C0 886.3 0 872.7 0 859C0 845.3 0 831.7 0 818C0 804.3 0 790.7 0 777C0 763.3 0 749.7 0 736C0 722.3 0 708.7 0 695.2C0 681.7 0 668.3 0 654.8C0 641.3 0 627.7 0 614C0 600.3 0 586.7 0 573C0 559.3 0 545.7 0 532C0 518.3 0 504.7 0 491C0 477.3 0 463.7 0 450C0 436.3 0 422.7 0 409C0 395.3 0 381.7 0 368C0 354.3 0 340.7 0 327C0 313.3 0 299.7 0 286C0 272.3 0 258.7 0 245.2C0 231.7 0 218.3 0 204.8C0 191.3 0 177.7 0 164C0 150.3 0 136.7 0 123C0 109.3 0 95.7 0 82C0 68.3 0 54.7 0 41C0 27.3 0 13.7 0 6.8L0 0Z" fill="#c62368"></path></svg>